<?xml version="1.0" encoding="utf-8"?>
<!-- Generator: Adobe Illustrator 24.3.0, SVG Export Plug-In . SVG Version: 6.00 Build 0)  -->
<svg version="1.1" id="Слой_1" xmlns="http://www.w3.org/2000/svg" xmlns:xlink="http://www.w3.org/1999/xlink" x="0px" y="0px"
	 viewBox="0 0 316.3 404.1" style="enable-background:new 0 0 316.3 404.1;" xml:space="preserve">
<style type="text/css">
	.st0{fill:none;stroke:#000000;stroke-width:24;stroke-miterlimit:10;}
</style>
<polygon class="st0" points="159.1,63.4 190.5,127.1 260.7,137.3 209.9,186.8 221.9,256.7 159.1,223.7 96.3,256.7 108.3,186.8 
	57.5,137.3 127.7,127.1 "/>
<path class="st0" d="M300.1,26v353.4c0,5-4.7,9.1-10.4,9.1l0,0c-2.4,0-4.8-0.8-6.7-2.1l-118-86.6c-3.9-2.8-9.5-2.8-13.4,0l-118,86.6
	c-1.9,1.4-4.2,2.1-6.7,2.1l0,0c-5.7,0-10.4-4.1-10.4-9.1V26c0-5,4.7-9.1,10.4-9.1h262.7C295.5,16.9,300.1,21,300.1,26z"/>
</svg>
