<?xml version="1.0" encoding="utf-8"?>
<!-- Generator: Adobe Illustrator 24.3.0, SVG Export Plug-In . SVG Version: 6.00 Build 0)  -->
<svg version="1.1" id="Слой_1" xmlns="http://www.w3.org/2000/svg" xmlns:xlink="http://www.w3.org/1999/xlink" x="0px" y="0px"
	 viewBox="0 0 1000 1481" style="enable-background:new 0 0 1000 1481;" xml:space="preserve">
<style type="text/css">
	.st0{fill:#FFFFFF;}
</style>
<g>
	<path class="st0" d="M499.9,573.2c57.5,0,115,0,172.5,0c18.7,0,32.5,10.8,36.1,28.1c0.6,2.9,0.7,6,0.7,8.9c0,86.8,0,173.6,0,260.4
		c0,22.6-14.6,37.2-37.2,37.2c-114.6,0-229.3,0-343.9,0c-22.9,0-37.3-14.6-37.3-37.6c0-86.5,0-173,0-259.4
		c0-23.3,14.4-37.7,37.7-37.7C385.6,573.2,442.8,573.2,499.9,573.2z M500,879.8c56.8,0,113.7,0,170.5,0c8.8,0,10.5-1.6,10.5-10.5
		c0-85.7,0-171.3,0-257c0-9.2-1.5-10.7-10.7-10.7c-113.5,0-227,0-340.5,0c-9.2,0-10.7,1.5-10.7,10.7c0,85.5,0,171,0,256.5
		c0,9.5,1.5,11,11,11C386.7,879.8,443.3,879.8,500,879.8z"/>
	<path class="st0" d="M416.9,740.5c11.4,11.5,22.7,22.8,34,34.1c37-37,73.9-74,111.1-111.1c1.9,1.6,3,2.5,4,3.5
		c28.2,28.1,56.3,56.3,84.4,84.5c1.6,1.6,2.9,4.2,2.9,6.4c0.2,30.2,0.1,60.3,0.1,90.5c0,1.1-0.2,2.3-0.4,4.1c-2.1,0-4,0-6,0
		c-98,0-195.9,0-293.9,0c-6.6,0-6.6,0-6.6-6.4c0-10.7-0.1-21.3,0.1-32c0-2,0.7-4.4,2-5.7c22-22.3,44.2-44.4,66.4-66.5
		C415.4,741.5,415.8,741.2,416.9,740.5z"/>
	<path class="st0" d="M346.6,671c0-23.2,18.7-42,41.9-42.1c23.1-0.1,41.9,18.8,41.9,42c0,23.3-18.5,41.9-41.8,42
		C365.3,712.8,346.6,694.2,346.6,671z"/>
</g>
<image style="display:none;overflow:visible;" width="1000" height="1481" xlink:href="4D2536CA.jpg" >
</image>
</svg>
